<?xml version="1.0" encoding="utf-8"?>
<!-- Generator: Adobe Illustrator 19.0.0, SVG Export Plug-In . SVG Version: 6.00 Build 0)  -->
<svg version="1.1" xmlns="http://www.w3.org/2000/svg" xmlns:xlink="http://www.w3.org/1999/xlink" x="0px" y="0px"
	 viewBox="0 0 500 500" style="enable-background:new 0 0 500 500;" xml:space="preserve">
<style type="text/css">
	.st0{fill:#61D3FF;}
	.st1{opacity:5.000000e-002;}
	.st2{opacity:0.5;}
	.st3{fill:#FFFFFF;}
	.st4{opacity:0.15;}
	.st5{fill:#F5F5F5;}
	.st6{fill:#001636;}
	.st7{fill:#000712;}
	.st8{fill:#E8E8E8;}
	.st9{fill:#B9D5ED;}
	.st10{fill:#FCAF3B;}
	.st11{fill:#4890CA;}
	.st12{fill:#4488BF;}
	.st13{opacity:0.15;fill:#FFFFFF;}
</style>
<g id="BACKGROUND">
	<rect id="XMLID_8_" class="st0" width="500" height="500"/>
</g>
<g id="OBJECTS">
	<g id="XMLID_1_">
		<path id="XMLID_268_" class="st1" d="M418.7,374.5H77.1c-3.8,0-6.8,3.1-6.8,6.8v0c0,3.8,3.1,6.8,6.8,6.8h137.8
			c3.4,0.4,6,3.3,6,6.8c0,1.9-0.8,3.6-2,4.8c-0.9,0.9-2.1,1.6-3.5,1.9H45.9c-3.8,0-6.8,3.1-6.8,6.8c0,3.8,3.1,6.8,6.8,6.8h321.9
			c3.8,0,6.8-3.1,6.8-6.8c0-3.8-3.1-6.8-6.8-6.8h-25.3c-3.1-0.6-5.5-3.4-5.5-6.7c0-1.9,0.8-3.6,2-4.8c1-1,2.4-1.8,4-1.9h75.7
			c3.8,0,6.8-3.1,6.8-6.8v0C425.5,377.5,422.4,374.5,418.7,374.5z"/>
		<path id="XMLID_267_" class="st1" d="M438.1,415.3h-40.6c-3.8,0-6.8-3.1-6.8-6.8l0,0c0-3.8,3.1-6.8,6.8-6.8h40.6
			c3.8,0,6.8,3.1,6.8,6.8l0,0C444.9,412.2,441.9,415.3,438.1,415.3z"/>
		<g id="XMLID_5_" class="st2">
			<g id="XMLID_139_">
				<path id="XMLID_194_" class="st3" d="M250.7,413c-12.5,0-24.9-1.5-36.8-4.4c-1-0.2-1.6-1.2-1.4-2.2c0.2-1,1.2-1.6,2.2-1.4
					c11.7,2.9,23.8,4.3,35.9,4.3c1,0,1.9,0.8,1.9,1.8C252.5,412.2,251.7,413,250.7,413l0-1.9L250.7,413
					C250.7,413,250.7,413,250.7,413z M269.1,411.9c-0.9,0-1.7-0.7-1.8-1.6c-0.1-1,0.6-1.9,1.6-2.1c21.3-2.6,41.3-9.5,59.7-20.6
					c0.9-0.5,2-0.3,2.5,0.6c0.5,0.9,0.3,2-0.6,2.5c-18.8,11.4-39.3,18.5-61.1,21.1C269.2,411.9,269.1,411.9,269.1,411.9z
					 M156.8,380.7c-0.4,0-0.8-0.1-1.1-0.4c-4.9-3.8-9.6-8-13.9-12.3c-0.7-0.7-0.7-1.9,0-2.6c0.7-0.7,1.9-0.7,2.6,0
					c4.3,4.3,8.9,8.3,13.6,12c0.8,0.6,0.9,1.8,0.3,2.6C157.9,380.4,157.4,380.7,156.8,380.7z M358.3,368.4c-0.5,0-0.9-0.2-1.3-0.5
					c-0.7-0.7-0.7-1.9,0-2.6c4.3-4.3,8.3-8.8,12-13.6c0.6-0.8,1.8-0.9,2.6-0.3c0.8,0.6,0.9,1.8,0.3,2.6c-3.8,4.9-8,9.6-12.3,13.9
					C359.3,368.2,358.8,368.4,358.3,368.4z M120.4,339.6c-0.6,0-1.2-0.3-1.6-0.9c-11.4-18.8-18.5-39.3-21.2-61.1
					c-0.1-1,0.6-1.9,1.6-2.1c1-0.1,1.9,0.6,2.1,1.6c2.6,21.3,9.5,41.3,20.6,59.7c0.5,0.9,0.3,2-0.6,2.5
					C121,339.5,120.7,339.6,120.4,339.6z M398.5,297.1c-0.1,0-0.3,0-0.4-0.1c-1-0.2-1.6-1.2-1.4-2.2c2.9-11.7,4.3-23.8,4.3-36v-0.4
					c0-1,0.8-1.9,1.9-1.9c1,0,1.9,0.8,1.9,1.9v0.4c0,12.5-1.5,24.9-4.4,36.9C400.1,296.6,399.4,297.1,398.5,297.1z M98.4,260.9
					c-1,0-1.9-0.8-1.9-1.8l0-0.2c0-12.4,1.5-24.8,4.4-36.7c0.2-1,1.2-1.6,2.2-1.4c1,0.2,1.6,1.2,1.4,2.2
					c-2.8,11.7-4.3,23.7-4.3,35.8l0,0.2C100.2,260,99.4,260.9,98.4,260.9z M401.8,242c-0.9,0-1.7-0.7-1.8-1.6
					c-2.6-21.3-9.6-41.3-20.7-59.6c-0.5-0.9-0.3-2,0.6-2.5c0.9-0.5,2-0.3,2.5,0.6c11.4,18.8,18.6,39.3,21.2,61.1
					c0.1,1-0.6,1.9-1.6,2.1C401.9,242,401.9,242,401.8,242z M130.6,166.9c-0.4,0-0.8-0.1-1.1-0.4c-0.8-0.6-0.9-1.8-0.3-2.6
					c3.8-4.9,8-9.6,12.3-13.9c0.7-0.7,1.9-0.7,2.6,0c0.7,0.7,0.7,1.9,0,2.6c-4.3,4.3-8.3,8.9-12,13.6
					C131.7,166.7,131.2,166.9,130.6,166.9z M358.1,152.8c-0.5,0-0.9-0.2-1.3-0.5c-4.3-4.3-8.9-8.3-13.6-12c-0.8-0.6-0.9-1.8-0.3-2.6
					c0.6-0.8,1.8-0.9,2.6-0.3c4.9,3.8,9.6,8,13.9,12.3c0.7,0.7,0.7,1.9,0,2.6C359,152.6,358.6,152.8,358.1,152.8z M171.6,130.5
					c-0.6,0-1.2-0.3-1.6-0.9c-0.5-0.9-0.3-2,0.6-2.5c18.8-11.4,39.3-18.5,61.1-21.2c1-0.1,1.9,0.6,2.1,1.6c0.1,1-0.6,1.9-1.6,2.1
					c-21.3,2.6-41.3,9.6-59.6,20.7C172.3,130.4,172,130.5,171.6,130.5z M286.8,112.7c-0.1,0-0.3,0-0.4-0.1
					c-11.6-2.8-23.7-4.3-35.7-4.3h-0.3c-1,0-1.9-0.8-1.9-1.9c0-1,0.8-1.9,1.9-1.9h0.3c12.4,0,24.7,1.5,36.6,4.4
					c1,0.2,1.6,1.2,1.4,2.2C288.4,112.2,287.6,112.7,286.8,112.7z"/>
			</g>
			<g id="XMLID_142_">
				<path id="XMLID_171_" class="st3" d="M250.6,393c-16.4,0-32.3-2.9-47.5-8.7c-1-0.4-1.4-1.4-1.1-2.4c0.4-1,1.4-1.4,2.4-1.1
					c14.7,5.6,30.3,8.4,46.2,8.4c8.8,0,17.6-0.9,26.2-2.6c1-0.2,2,0.4,2.2,1.4c0.2,1-0.4,2-1.4,2.2C268.7,392,259.7,393,250.6,393z
					 M184.6,375.3c-0.3,0-0.6-0.1-0.9-0.2c-12.5-7.2-23.7-16.4-33.3-27.2c-0.7-0.8-0.6-1.9,0.2-2.6c0.8-0.7,1.9-0.6,2.6,0.2
					c9.3,10.5,20.3,19.4,32.4,26.5c0.9,0.5,1.2,1.6,0.7,2.5C185.8,375,185.2,375.3,184.6,375.3z M316.8,375.2
					c-0.6,0-1.3-0.3-1.6-0.9c-0.5-0.9-0.2-2,0.7-2.5c6-3.5,11.8-7.5,17.3-11.9c0.8-0.6,2-0.5,2.6,0.3c0.6,0.8,0.5,2-0.3,2.6
					c-5.6,4.5-11.5,8.7-17.7,12.3C317.4,375.2,317.1,375.2,316.8,375.2z M376.1,302.6c-0.2,0-0.4,0-0.6-0.1c-1-0.3-1.5-1.4-1.2-2.3
					c4.4-13.3,6.7-27.2,6.7-41.3v-0.2c0-1,0.8-1.9,1.9-1.9c1,0,1.9,0.8,1.9,1.9v0.2c0,14.5-2.3,28.8-6.9,42.5
					C377.6,302.1,376.9,302.6,376.1,302.6z M120.1,282c-0.9,0-1.7-0.6-1.8-1.6c-1.1-7.1-1.7-14.3-1.7-21.5c0-1,0.8-1.9,1.8-1.9
					c0,0,0,0,0,0c1,0,1.8,0.8,1.9,1.8c0,7,0.6,14,1.7,20.9c0.2,1-0.5,2-1.5,2.1C120.3,282,120.2,282,120.1,282z M381.2,239.2
					c-0.9,0-1.7-0.6-1.8-1.6c-4-24.3-14.8-47-31.2-65.5c-0.7-0.8-0.6-1.9,0.2-2.6c0.8-0.7,1.9-0.6,2.6,0.2
					c16.9,19,28,42.3,32.1,67.3c0.2,1-0.5,2-1.5,2.1C381.4,239.2,381.3,239.2,381.2,239.2z M125.1,218.9c-0.2,0-0.4,0-0.6-0.1
					c-1-0.3-1.5-1.4-1.2-2.3c8-24,22.6-45.3,42.3-61.4c0.8-0.6,2-0.5,2.6,0.3c0.6,0.8,0.5,2-0.3,2.6c-19.2,15.7-33.4,36.4-41.2,59.7
					C126.6,218.4,125.9,218.9,125.1,218.9z M184.4,146.2c-0.6,0-1.3-0.3-1.6-0.9c-0.5-0.9-0.2-2,0.7-2.5c12.5-7.3,26-12.4,40.2-15.3
					c1-0.2,2,0.4,2.2,1.4c0.2,1-0.4,2-1.4,2.2c-13.8,2.8-26.9,7.8-39.1,14.9C185,146.1,184.7,146.2,184.4,146.2z M316.6,146
					c-0.3,0-0.6-0.1-0.9-0.2c-6.1-3.5-12.4-6.5-19-9c-1-0.4-1.4-1.4-1.1-2.4c0.4-1,1.4-1.4,2.4-1.1c6.7,2.5,13.3,5.6,19.5,9.2
					c0.9,0.5,1.2,1.6,0.7,2.5C317.9,145.7,317.2,146,316.6,146z"/>
			</g>
			<g id="XMLID_143_">
				<path id="XMLID_150_" class="st3" d="M250.6,369.6c-13.5,0-26.7-2.4-39.2-7.1c-1-0.4-1.4-1.4-1.1-2.4c0.4-1,1.4-1.4,2.4-1.1
					c12.1,4.6,24.9,6.9,37.9,6.9c7.2,0,14.4-0.7,21.5-2.2c1-0.2,2,0.4,2.2,1.4c0.2,1-0.4,2-1.4,2.2
					C265.6,368.8,258.1,369.6,250.6,369.6z M196.2,355.1c-0.3,0-0.6-0.1-0.9-0.2c-10.3-6-19.6-13.5-27.5-22.5
					c-0.7-0.8-0.6-1.9,0.2-2.6c0.8-0.7,1.9-0.6,2.6,0.2c7.7,8.6,16.6,15.9,26.6,21.7c0.9,0.5,1.2,1.6,0.7,2.5
					C197.5,354.7,196.9,355.1,196.2,355.1z M305.1,355c-0.6,0-1.3-0.3-1.6-0.9c-0.5-0.9-0.2-2,0.7-2.5c5-2.9,9.7-6.2,14.2-9.8
					c0.8-0.6,2-0.5,2.6,0.3c0.6,0.8,0.5,2-0.3,2.6c-4.6,3.8-9.5,7.2-14.6,10.1C305.8,354.9,305.4,355,305.1,355z M354,295.2
					c-0.2,0-0.4,0-0.6-0.1c-1-0.3-1.5-1.4-1.2-2.3c3.6-10.9,5.5-22.3,5.5-33.9v-0.2c0-1,0.8-1.9,1.9-1.9s1.9,0.8,1.9,1.9v0.2
					c0,12-1.9,23.8-5.7,35.1C355.5,294.7,354.7,295.2,354,295.2z M143.1,278.3c-0.9,0-1.7-0.6-1.8-1.6c-0.9-5.8-1.4-11.8-1.4-17.8
					c0-1,0.8-1.9,1.8-1.9h0c1,0,1.8,0.8,1.9,1.8c0,5.8,0.5,11.5,1.4,17.2c0.2,1-0.5,2-1.5,2.1C143.3,278.3,143.2,278.3,143.1,278.3z
					 M358.1,243c-0.9,0-1.7-0.6-1.8-1.6c-3.3-20-12.1-38.6-25.6-53.7c-0.7-0.8-0.6-1.9,0.2-2.6c0.8-0.7,1.9-0.6,2.6,0.2
					c14,15.7,23.1,34.9,26.5,55.6c0.2,1-0.5,2-1.5,2.1C358.3,243,358.2,243,358.1,243z M147.3,226.3c-0.2,0-0.4,0-0.6-0.1
					c-1-0.3-1.5-1.4-1.2-2.3c6.6-19.9,18.7-37.4,35-50.7c0.8-0.6,2-0.5,2.6,0.3c0.6,0.8,0.5,2-0.3,2.6c-15.7,12.9-27.4,29.8-33.8,49
					C148.8,225.8,148.1,226.3,147.3,226.3z M196.1,166.4c-0.6,0-1.3-0.3-1.6-0.9c-0.5-0.9-0.2-2,0.7-2.5c10.3-6,21.5-10.3,33.2-12.6
					c1-0.2,2,0.4,2.2,1.4c0.2,1-0.4,2-1.4,2.2c-11.3,2.3-22.1,6.4-32.1,12.2C196.7,166.4,196.4,166.4,196.1,166.4z M304.9,166.3
					c-0.3,0-0.6-0.1-0.9-0.2c-5-2.9-10.2-5.3-15.6-7.4c-1-0.4-1.4-1.4-1.1-2.4c0.4-1,1.4-1.4,2.4-1.1c5.5,2.1,11,4.7,16.1,7.6
					c0.9,0.5,1.2,1.6,0.7,2.5C306.2,166,305.6,166.3,304.9,166.3z"/>
			</g>
			<g id="XMLID_144_">
				<path id="XMLID_229_" class="st3" d="M105,173.4c-5.1,0-9.2-4.1-9.2-9.2c0-5.1,4.1-9.2,9.2-9.2c5.1,0,9.2,4.1,9.2,9.2
					C114.2,169.3,110.1,173.4,105,173.4z M105,156.9c-4,0-7.3,3.3-7.3,7.3c0,4,3.3,7.3,7.3,7.3c4,0,7.3-3.3,7.3-7.3
					C112.3,160.2,109.1,156.9,105,156.9z"/>
			</g>
			<g id="XMLID_149_">
				<path id="XMLID_239_" class="st3" d="M380.6,403.4c-7,0-12.7-5.7-12.7-12.7s5.7-12.7,12.7-12.7c7,0,12.7,5.7,12.7,12.7
					S387.5,403.4,380.6,403.4z M380.6,381.5c-5.1,0-9.3,4.2-9.3,9.3s4.2,9.3,9.3,9.3c5.1,0,9.3-4.2,9.3-9.3S385.7,381.5,380.6,381.5
					z"/>
			</g>
			<g id="XMLID_145_">
				<path id="XMLID_232_" class="st3" d="M147.3,131.6c-0.5,0-0.9-0.4-0.9-0.9c0-4.5-3.7-8.1-8.1-8.1c-0.5,0-0.9-0.4-0.9-0.9
					s0.4-0.9,0.9-0.9c4.5,0,8.1-3.7,8.1-8.1c0-0.5,0.4-0.9,0.9-0.9c0.5,0,0.9,0.4,0.9,0.9c0,4.5,3.7,8.1,8.1,8.1
					c0.5,0,0.9,0.4,0.9,0.9s-0.4,0.9-0.9,0.9c-4.5,0-8.1,3.7-8.1,8.1C148.2,131.2,147.8,131.6,147.3,131.6z M142.4,121.6
					c2.1,1,3.9,2.7,4.9,4.9c1-2.1,2.7-3.9,4.9-4.9c-2.1-1-3.9-2.7-4.9-4.9C146.3,118.9,144.6,120.6,142.4,121.6z"/>
			</g>
			<g id="XMLID_156_">
				<path id="XMLID_236_" class="st3" d="M346.5,412.5c-0.5,0-0.9-0.4-0.9-0.9c0-4.5-3.7-8.1-8.1-8.1c-0.5,0-0.9-0.4-0.9-0.9
					c0-0.5,0.4-0.9,0.9-0.9c4.5,0,8.1-3.7,8.1-8.1c0-0.5,0.4-0.9,0.9-0.9c0.5,0,0.9,0.4,0.9,0.9c0,4.5,3.7,8.1,8.1,8.1
					c0.5,0,0.9,0.4,0.9,0.9c0,0.5-0.4,0.9-0.9,0.9c-4.5,0-8.1,3.7-8.1,8.1C347.4,412.1,347,412.5,346.5,412.5z M341.6,402.6
					c2.1,1,3.9,2.7,4.9,4.9c1-2.1,2.7-3.9,4.9-4.9c-2.1-1-3.9-2.7-4.9-4.9C345.5,399.8,343.7,401.6,341.6,402.6z"/>
			</g>
			<path id="XMLID_159_" class="st3" d="M429.7,220.9L429.7,220.9c0-5-4.1-9.1-9.1-9.1v0c5,0,9.1-4.1,9.1-9.1l0,0
				c0,5,4.1,9.1,9.1,9.1v0C433.8,211.8,429.7,215.9,429.7,220.9z"/>
			<path id="XMLID_6_" class="st3" d="M310,117.7L310,117.7c0-2.6-2.1-4.6-4.6-4.6l0,0c2.6,0,4.6-2.1,4.6-4.6l0,0
				c0,2.6,2.1,4.6,4.6,4.6l0,0C312.1,113.1,310,115.1,310,117.7z"/>
			<g id="XMLID_147_">
				<path id="XMLID_242_" class="st3" d="M71.1,270.1c-0.8,0-1.4-0.6-1.4-1.4c0-4.2-3.4-7.7-7.7-7.7c-0.8,0-1.4-0.6-1.4-1.4
					c0-0.8,0.6-1.4,1.4-1.4c4.2,0,7.7-3.4,7.7-7.7c0-0.8,0.6-1.4,1.4-1.4c0.8,0,1.4,0.6,1.4,1.4c0,4.2,3.4,7.7,7.7,7.7
					c0.8,0,1.4,0.6,1.4,1.4c0,0.8-0.6,1.4-1.4,1.4c-4.2,0-7.7,3.4-7.7,7.7C72.5,269.5,71.8,270.1,71.1,270.1z M67.2,259.7
					c1.6,0.9,2.9,2.3,3.9,3.9c0.9-1.6,2.3-2.9,3.9-3.9c-1.6-0.9-2.9-2.3-3.9-3.9C70.1,257.4,68.8,258.8,67.2,259.7z"/>
			</g>
			<circle id="XMLID_146_" class="st3" cx="367.6" cy="146.4" r="2.9"/>
			<circle id="XMLID_158_" class="st3" cx="291.8" cy="380.8" r="3.8"/>
			<circle id="XMLID_157_" class="st3" cx="128.7" cy="393.1" r="3.8"/>
			<circle id="XMLID_4_" class="st3" cx="264.9" cy="129" r="1.5"/>
		</g>
		<g id="XMLID_11_">
			<path id="XMLID_406_" class="st4" d="M390.3,201.1c-0.3-5.2-4.7-9.4-10-9.4H155.9c-5.3,0-9.6,4.1-10,9.4c0,0.2,0,0.4,0,0.6v1.3
				v0.6v5.9v17.6v44.5v30.3v15.5v0.9v6.9v13.2c0,5.5,4.5,10,10,10H233l0,0.1l-6.6,19.9h-3.4c-0.8,0-1.4,0.6-1.4,1.4v3.2
				c0,0.8,0.6,1.4,1.4,1.4h90.5c0.8,0,1.4-0.6,1.4-1.4v-3.2c0-0.8-0.6-1.4-1.4-1.4h-3.4l-6.6-19.9l0-0.1h77.1c5.5,0,10-4.5,10-10
				v-13.2v-6.9v-0.9v-15.5v-30.3v-44.5v-17.6v-5.9v-0.6v-1.3C390.4,201.5,390.4,201.3,390.3,201.1z"/>
			<g id="XMLID_104_">
				<polygon id="XMLID_14_" class="st5" points="303.6,371.7 217.8,371.7 229.4,336.9 292,336.9 				"/>
				<path id="XMLID_31_" class="st6" d="M383,201.8v136.8c0,5.5-4.5,10-10,10H148.5c-5.5,0-10-4.5-10-10V201.8c0-0.2,0-0.4,0-0.6
					c0.3-5.2,4.7-9.4,10-9.4H373c5.3,0,9.6,4.1,10,9.4C383,201.3,383,201.5,383,201.8z"/>
				<path id="XMLID_18_" class="st3" d="M383,325.3v13.2c0,5.5-4.5,10-10,10H148.5c-5.5,0-10-4.5-10-10v-13.2H383z"/>
				<path id="XMLID_100_" class="st3" d="M383,203.7v113.8H138.5V203.7c0-0.2,0-0.4,0-0.6h244.5C383,203.2,383,203.5,383,203.7z"/>
				<circle id="XMLID_13_" class="st7" cx="260.7" cy="196.5" r="2.7"/>
				<path id="XMLID_16_" class="st5" d="M306,374.5h-90.5c-0.8,0-1.4-0.6-1.4-1.4v-3.2c0-0.8,0.6-1.4,1.4-1.4H306
					c0.8,0,1.4,0.6,1.4,1.4v3.2C307.3,373.9,306.7,374.5,306,374.5z"/>
				<polygon id="XMLID_26_" class="st8" points="298.1,355.2 223.3,355.2 225.6,348.5 295.9,348.5 				"/>
				<polygon id="XMLID_27_" class="st8" points="302.5,368.5 218.9,368.5 219.9,365.4 301.5,365.4 				"/>
				<path id="XMLID_83_" class="st8" d="M383,203.1v6.5H138.5v-6.5c0,0,0,0,0,0L383,203.1C383,203.1,383,203.1,383,203.1z"/>
				<path id="XMLID_86_" class="st3" d="M323.4,208.2H198.1c-1,0-1.9-0.8-1.9-1.9l0,0c0-1,0.8-1.9,1.9-1.9h125.3
					c1,0,1.9,0.8,1.9,1.9l0,0C325.3,207.4,324.4,208.2,323.4,208.2z"/>
				<path id="XMLID_22_" class="st9" d="M383,302.1v16.3H138.5v-16.3c0,0,0-0.1,0-0.1L383,302.1C383,302,383,302,383,302.1z"/>
				<g id="XMLID_52_">
					<g id="XMLID_51_">
						<circle id="XMLID_25_" class="st10" cx="263" cy="284.3" r="7.4"/>
						<g id="XMLID_48_">
							<path id="XMLID_42_" class="st9" d="M267.3,296.9h-21.5c-0.9,0-1.6-0.7-1.6-1.6l0,0c0-0.9,0.7-1.6,1.6-1.6h21.5
								c0.9,0,1.6,0.7,1.6,1.6l0,0C269,296.2,268.2,296.9,267.3,296.9z"/>
							<path id="XMLID_43_" class="st9" d="M280,296.9h-8.3c-0.9,0-1.6-0.7-1.6-1.6l0,0c0-0.9,0.7-1.6,1.6-1.6h8.3
								c0.9,0,1.6,0.7,1.6,1.6l0,0C281.6,296.2,280.9,296.9,280,296.9z"/>
						</g>
					</g>
					<g id="XMLID_50_">
						<circle id="XMLID_29_" class="st10" cx="319.9" cy="284.3" r="7.4"/>
						<g id="XMLID_49_">
							<path id="XMLID_44_" class="st9" d="M315.7,296.9h-8.3c-0.9,0-1.6-0.7-1.6-1.6l0,0c0-0.9,0.7-1.6,1.6-1.6h8.3
								c0.9,0,1.6,0.7,1.6,1.6l0,0C317.3,296.2,316.6,296.9,315.7,296.9z"/>
							<path id="XMLID_45_" class="st9" d="M332.4,296.9h-12.7c-0.9,0-1.6-0.7-1.6-1.6l0,0c0-0.9,0.7-1.6,1.6-1.6h12.7
								c0.9,0,1.6,0.7,1.6,1.6l0,0C334,296.2,333.3,296.9,332.4,296.9z"/>
						</g>
					</g>
					<g id="XMLID_47_">
						<circle id="XMLID_21_" class="st10" cx="203.4" cy="284.3" r="7.4"/>
						<g id="XMLID_24_">
							<path id="XMLID_33_" class="st9" d="M205.4,296.9h-8.5c-0.9,0-1.6-0.7-1.6-1.6l0,0c0-0.9,0.7-1.6,1.6-1.6h8.5
								c0.9,0,1.6,0.7,1.6,1.6l0,0C207,296.2,206.3,296.9,205.4,296.9z"/>
							<path id="XMLID_41_" class="st9" d="M192.5,296.9h-3.5c-0.9,0-1.6-0.7-1.6-1.6l0,0c0-0.9,0.7-1.6,1.6-1.6h3.5
								c0.9,0,1.6,0.7,1.6,1.6l0,0C194.1,296.2,193.4,296.9,192.5,296.9z"/>
							<path id="XMLID_40_" class="st9" d="M217.8,296.9h-7.7c-0.9,0-1.6-0.7-1.6-1.6l0,0c0-0.9,0.7-1.6,1.6-1.6h7.7
								c0.9,0,1.6,0.7,1.6,1.6l0,0C219.4,296.2,218.7,296.9,217.8,296.9z"/>
						</g>
					</g>
				</g>
				<g id="XMLID_46_">
					<path id="XMLID_38_" class="st11" d="M222.5,310.4v8h-50.1v-8c0.2-0.2,0.3-0.3,0.5-0.5h49.2
						C222.3,310.1,222.4,310.2,222.5,310.4z"/>
					<path id="XMLID_53_" class="st11" d="M285.8,310.4v8h-50.1v-8c0.2-0.2,0.3-0.3,0.5-0.5h49.2
						C285.5,310.1,285.6,310.2,285.8,310.4z"/>
					<path id="XMLID_58_" class="st11" d="M349,310.4v8h-50.1v-8c0.2-0.2,0.3-0.3,0.5-0.5h49.2C348.7,310.1,348.8,310.2,349,310.4z"
						/>
				</g>
				<g id="XMLID_64_">
					<path id="XMLID_62_" class="st10" d="M177.9,224.6h-5.8c-1.6,0-2.9-1.3-2.9-2.9v-5.1c0-1.6,1.3-2.9,2.9-2.9h5.8
						c1.6,0,2.9,1.3,2.9,2.9v5.1C180.9,223.3,179.5,224.6,177.9,224.6z"/>
					<g id="XMLID_59_">
						<path id="XMLID_54_" class="st9" d="M267.5,220.6h-8.5c-0.9,0-1.6-0.7-1.6-1.6l0,0c0-0.9,0.7-1.6,1.6-1.6h8.5
							c0.9,0,1.6,0.7,1.6,1.6l0,0C269,219.9,268.3,220.6,267.5,220.6z"/>
						<path id="XMLID_60_" class="st9" d="M332.6,220.6H310c-0.9,0-1.6-0.7-1.6-1.6l0,0c0-0.9,0.7-1.6,1.6-1.6h22.6
							c0.9,0,1.6,0.7,1.6,1.6l0,0C334.1,219.9,333.4,220.6,332.6,220.6z"/>
						<path id="XMLID_61_" class="st9" d="M351,220.6h-12.4c-0.7,0-1.2-0.5-1.2-1.2v-0.8c0-0.7,0.5-1.2,1.2-1.2H351
							c0.7,0,1.2,0.5,1.2,1.2v0.8C352.2,220.1,351.7,220.6,351,220.6z"/>
						<g id="XMLID_55_">
							<path id="XMLID_56_" class="st9" d="M293.1,220.6h-17.2c-0.9,0-1.6-0.7-1.6-1.6l0,0c0-0.9,0.7-1.6,1.6-1.6h17.2
								c0.9,0,1.6,0.7,1.6,1.6l0,0C294.7,219.9,294,220.6,293.1,220.6z"/>
							<path id="XMLID_57_" class="st9" d="M302.5,220.6h-5.1c-0.9,0-1.6-0.7-1.6-1.6l0,0c0-0.9,0.7-1.6,1.6-1.6h5.1
								c0.9,0,1.6,0.7,1.6,1.6l0,0C304,219.9,303.3,220.6,302.5,220.6z"/>
						</g>
					</g>
				</g>
				<g id="XMLID_81_">
					<path id="XMLID_15_" class="st10" d="M383,227.2v44.5H138.5v-44.5c0-0.1,0-0.2,0-0.2h244.5C383,227,383,227.1,383,227.2z"/>
					<path id="XMLID_63_" class="st12" d="M215.6,227.2v44.5h-77.1v-44.5c0-0.1,0-0.2,0-0.2h77.1C215.6,227,215.6,227.1,215.6,227.2
						z"/>
					<g id="XMLID_70_">
						<g id="XMLID_68_">
							<path id="XMLID_78_" class="st3" d="M222.8,252.5l-3.1-3.1c-0.3-0.3-0.3-0.7,0-0.9l2.9-2.9l0.9,0.9l-2.5,2.5l2.6,2.6
								L222.8,252.5z"/>
						</g>
						<g id="XMLID_79_">
							<path id="XMLID_80_" class="st3" d="M373.6,252.5l3.1-3.1c0.3-0.3,0.3-0.7,0-0.9l-2.9-2.9l-0.9,0.9l2.5,2.5l-2.6,2.6
								L373.6,252.5z"/>
						</g>
					</g>
				</g>
				<g id="XMLID_89_">
					<polygon id="XMLID_95_" class="st13" points="290.1,203 175.6,317.5 141.5,317.5 141.5,310.3 248.7,203 					"/>
					<polygon id="XMLID_94_" class="st13" points="380,203 265.5,317.5 224.1,317.5 338.6,203 					"/>
				</g>
			</g>
		</g>
		<g id="XMLID_66_">
			<path id="XMLID_401_" class="st4" d="M204.3,283H82.5c-2.2,0-4,1.8-4,4v83.5c0,2.2,1.8,4,4,4h5v0h0.2h3.6h20.1h88v0h5
				c2.2,0,4-1.8,4-4V287C208.3,284.8,206.5,283,204.3,283z"/>
			<g id="XMLID_286_">
				<path id="XMLID_350_" class="st6" d="M196.9,374.5H75.1c-2.2,0-4-1.8-4-4V287c0-2.2,1.8-4,4-4h121.8c2.2,0,4,1.8,4,4v83.5
					C200.9,372.7,199.1,374.5,196.9,374.5z"/>
				<g id="XMLID_291_">
					<rect id="XMLID_349_" x="80.1" y="283" class="st3" width="111.8" height="91.5"/>
					<path id="XMLID_348_" class="st8" d="M191.8,283v5.5H80.1V283c0,0,0,0,0,0L191.8,283C191.8,283,191.8,283,191.8,283z"/>
					<path id="XMLID_347_" class="st3" d="M164.3,286.8h-56.6c-0.7,0-1.2-0.5-1.2-1.2l0,0c0-0.7,0.5-1.2,1.2-1.2h56.6
						c0.7,0,1.2,0.5,1.2,1.2l0,0C165.5,286.2,164.9,286.8,164.3,286.8z"/>
					<path id="XMLID_344_" class="st9" d="M191.8,347v23.1H80.1V347c0,0,0-0.1,0-0.1h111.7C191.8,346.9,191.8,347,191.8,347z"/>
					<g id="XMLID_323_">
						<g id="XMLID_337_">
							<circle id="XMLID_341_" class="st10" cx="137" cy="334.9" r="3.4"/>
							<g id="XMLID_338_">
								<path id="XMLID_340_" class="st9" d="M139,340.7h-9.8c-0.4,0-0.7-0.3-0.7-0.7l0,0c0-0.4,0.3-0.7,0.7-0.7h9.8
									c0.4,0,0.7,0.3,0.7,0.7l0,0C139.7,340.4,139.4,340.7,139,340.7z"/>
								<path id="XMLID_339_" class="st9" d="M144.8,340.7H141c-0.4,0-0.7-0.3-0.7-0.7l0,0c0-0.4,0.3-0.7,0.7-0.7h3.8
									c0.4,0,0.7,0.3,0.7,0.7l0,0C145.5,340.4,145.2,340.7,144.8,340.7z"/>
							</g>
						</g>
						<g id="XMLID_330_">
							<circle id="XMLID_334_" class="st10" cx="163" cy="334.9" r="3.4"/>
							<g id="XMLID_331_">
								<path id="XMLID_333_" class="st9" d="M161.1,340.7h-3.8c-0.4,0-0.7-0.3-0.7-0.7l0,0c0-0.4,0.3-0.7,0.7-0.7h3.8
									c0.4,0,0.7,0.3,0.7,0.7l0,0C161.8,340.4,161.5,340.7,161.1,340.7z"/>
								<path id="XMLID_332_" class="st9" d="M168.7,340.7h-5.8c-0.4,0-0.7-0.3-0.7-0.7l0,0c0-0.4,0.3-0.7,0.7-0.7h5.8
									c0.4,0,0.7,0.3,0.7,0.7l0,0C169.5,340.4,169.1,340.7,168.7,340.7z"/>
							</g>
						</g>
						<g id="XMLID_324_">
							<circle id="XMLID_329_" class="st10" cx="109.8" cy="334.9" r="3.4"/>
							<g id="XMLID_325_">
								<path id="XMLID_328_" class="st9" d="M110.7,340.7h-3.9c-0.4,0-0.7-0.3-0.7-0.7l0,0c0-0.4,0.3-0.7,0.7-0.7h3.9
									c0.4,0,0.7,0.3,0.7,0.7l0,0C111.4,340.4,111.1,340.7,110.7,340.7z"/>
								<path id="XMLID_327_" class="st9" d="M104.8,340.7h-1.6c-0.4,0-0.7-0.3-0.7-0.7l0,0c0-0.4,0.3-0.7,0.7-0.7h1.6
									c0.4,0,0.7,0.3,0.7,0.7l0,0C105.5,340.4,105.2,340.7,104.8,340.7z"/>
								<path id="XMLID_326_" class="st9" d="M116.4,340.7h-3.5c-0.4,0-0.7-0.3-0.7-0.7l0,0c0-0.4,0.3-0.7,0.7-0.7h3.5
									c0.4,0,0.7,0.3,0.7,0.7l0,0C117.1,340.4,116.8,340.7,116.4,340.7z"/>
							</g>
						</g>
					</g>
					<g id="XMLID_313_">
						<path id="XMLID_320_" class="st11" d="M118.5,351.5V366c0,0.6-0.5,1-1,1H96.7c-0.6,0-1-0.5-1-1v-14.5c0-0.6,0.5-1,1-1h20.8
							C118.1,350.5,118.5,351,118.5,351.5z"/>
						<path id="XMLID_317_" class="st11" d="M147.4,351.5V366c0,0.6-0.5,1-1,1h-20.8c-0.6,0-1-0.5-1-1v-14.5c0-0.6,0.5-1,1-1h20.8
							C147,350.5,147.4,351,147.4,351.5z"/>
						<path id="XMLID_314_" class="st11" d="M176.3,351.5V366c0,0.6-0.5,1-1,1h-20.8c-0.6,0-1-0.5-1-1v-14.5c0-0.6,0.5-1,1-1h20.8
							C175.9,350.5,176.3,351,176.3,351.5z"/>
					</g>
					<g id="XMLID_304_">
						<path id="XMLID_312_" class="st10" d="M98.1,295.8h-2.6c-0.7,0-1.3-0.6-1.3-1.3v-2.3c0-0.7,0.6-1.3,1.3-1.3h2.6
							c0.7,0,1.3,0.6,1.3,1.3v2.3C99.5,295.2,98.9,295.8,98.1,295.8z"/>
						<g id="XMLID_305_">
							<path id="XMLID_311_" class="st9" d="M139,294h-3.9c-0.4,0-0.7-0.3-0.7-0.7l0,0c0-0.4,0.3-0.7,0.7-0.7h3.9
								c0.4,0,0.7,0.3,0.7,0.7l0,0C139.8,293.7,139.4,294,139,294z"/>
							<path id="XMLID_310_" class="st9" d="M168.8,294h-10.3c-0.4,0-0.7-0.3-0.7-0.7l0,0c0-0.4,0.3-0.7,0.7-0.7h10.3
								c0.4,0,0.7,0.3,0.7,0.7l0,0C169.5,293.7,169.2,294,168.8,294z"/>
							<path id="XMLID_309_" class="st9" d="M177.2,294h-5.7c-0.3,0-0.5-0.2-0.5-0.5v-0.3c0-0.3,0.2-0.5,0.5-0.5h5.7
								c0.3,0,0.5,0.2,0.5,0.5v0.3C177.8,293.8,177.5,294,177.2,294z"/>
							<g id="XMLID_306_">
								<path id="XMLID_308_" class="st9" d="M150.8,294h-7.9c-0.4,0-0.7-0.3-0.7-0.7l0,0c0-0.4,0.3-0.7,0.7-0.7h7.9
									c0.4,0,0.7,0.3,0.7,0.7l0,0C151.5,293.7,151.2,294,150.8,294z"/>
								<path id="XMLID_307_" class="st9" d="M155,294h-2.3c-0.4,0-0.7-0.3-0.7-0.7l0,0c0-0.4,0.3-0.7,0.7-0.7h2.3
									c0.4,0,0.7,0.3,0.7,0.7l0,0C155.8,293.7,155.4,294,155,294z"/>
							</g>
						</g>
					</g>
					<g id="XMLID_292_">
						<path id="XMLID_301_" class="st10" d="M191.8,303.9v24.2H80.1v-24.2c0,0,0-0.1,0-0.1h111.7
							C191.8,303.8,191.8,303.8,191.8,303.9z"/>
						<path id="XMLID_298_" class="st12" d="M115.3,303.9v24.2H80.1v-24.2c0,0,0-0.1,0-0.1h35.2
							C115.3,303.8,115.3,303.8,115.3,303.9z"/>
						<g id="XMLID_293_">
							<g id="XMLID_296_">
								<path id="XMLID_297_" class="st3" d="M118.6,317.5l-1.4-1.4c-0.1-0.1-0.1-0.3,0-0.4l1.3-1.3l0.4,0.4l-1.1,1.1l1.2,1.2
									L118.6,317.5z"/>
							</g>
							<g id="XMLID_294_">
								<path id="XMLID_295_" class="st3" d="M187.6,317.5l1.4-1.4c0.1-0.1,0.1-0.3,0-0.4l-1.3-1.3l-0.4,0.4l1.1,1.1l-1.2,1.2
									L187.6,317.5z"/>
							</g>
						</g>
					</g>
				</g>
				<path id="XMLID_290_" class="st7" d="M75.2,339.4L75.2,339.4c-0.8,0-1.5-0.7-1.5-1.5v-18.2c0-0.8,0.7-1.5,1.5-1.5l0,0
					c0.8,0,1.5,0.7,1.5,1.5v18.2C76.8,338.7,76.1,339.4,75.2,339.4z"/>
				<path id="XMLID_289_" class="st7" d="M196.4,339.4L196.4,339.4c-0.8,0-1.5-0.7-1.5-1.5v-18.2c0-0.8,0.7-1.5,1.5-1.5l0,0
					c0.8,0,1.5,0.7,1.5,1.5v18.2C198,338.7,197.3,339.4,196.4,339.4z"/>
				<polygon id="XMLID_288_" class="st13" points="135.7,283 135.7,283 135.3,283.6 134.3,285.3 133.9,285.9 123.1,303.7 
					115.3,316.6 108.4,328.1 97,346.9 82.9,370.1 80.2,374.5 80.1,374.5 80.1,334.5 84,328.1 98.8,303.7 109.5,285.9 109.9,285.3 
					110.9,283.6 111.3,283 111.3,283 				"/>
				<polygon id="XMLID_287_" class="st13" points="159.4,283 159.4,283 159,283.6 158,285.3 157.6,285.9 153.6,292.6 152.7,294 
					146.8,303.7 132.1,328.1 120.7,346.9 118.3,350.9 108.4,367.1 106.6,370.1 103.9,374.5 83.8,374.5 86.5,370.1 95.6,355 
					98.3,350.5 100.5,346.9 104.3,340.7 105.1,339.3 106.8,336.5 109.8,331.6 111.9,328.1 115.3,322.5 118.5,317.3 118.8,316.8 
					126.7,303.7 137.5,285.9 137.8,285.3 138.9,283.6 139.3,283 139.3,283 				"/>
			</g>
		</g>
		<g id="XMLID_36_">
			<path id="XMLID_398_" class="st4" d="M418.4,291.2C418.4,291.2,418.4,291.2,418.4,291.2L418.4,291.2l0-2c0-2.1-1.7-3.8-3.8-3.8
				h-43.1c-2.1,0-3.8,1.7-3.8,3.8v2v19.5v17.1v3.8v7.4v29v2.7c0,2.1,1.7,3.8,3.8,3.8h43.1c2.1,0,3.8-1.7,3.8-3.8v-2.7v-27.3v-14.8
				v-30.4h0V291.2z"/>
			<g id="XMLID_84_">
				<path id="XMLID_165_" class="st6" d="M411,289.2v81.5c0,2.1-1.7,3.8-3.8,3.8H364c-2.1,0-3.8-1.7-3.8-3.8v-81.5
					c0-2.1,1.7-3.8,3.8-3.8h43.1C409.3,285.4,411,287.1,411,289.2z"/>
				<rect id="XMLID_235_" x="360.2" y="291.2" class="st3" width="50.8" height="76.8"/>
				<g id="XMLID_77_">
					<path id="XMLID_221_" class="st8" d="M411,291.2v4.2h-50.7v-4.2c0,0,0,0,0,0L411,291.2C411,291.2,411,291.2,411,291.2z"/>
					<path id="XMLID_220_" class="st3" d="M397.8,294.3h-24.4c-0.7,0-1.2-0.5-1.2-1.2l0,0c0-0.7,0.5-1.2,1.2-1.2h24.4
						c0.7,0,1.2,0.5,1.2,1.2l0,0C399,293.8,398.5,294.3,397.8,294.3z"/>
					<path id="XMLID_76_" class="st9" d="M411,345.6v14.2h-50.7v-14.2c0,0,0-0.1,0-0.1L411,345.6C411,345.5,411,345.6,411,345.6z"/>
					<g id="XMLID_196_">
						<g id="XMLID_210_">
							<circle id="XMLID_214_" class="st10" cx="386.3" cy="331.9" r="2.3"/>
							<g id="XMLID_211_">
								<path id="XMLID_213_" class="st9" d="M387.7,335.9h-6.8c-0.3,0-0.5-0.2-0.5-0.5l0,0c0-0.3,0.2-0.5,0.5-0.5h6.8
									c0.3,0,0.5,0.2,0.5,0.5l0,0C388.2,335.7,388,335.9,387.7,335.9z"/>
								<path id="XMLID_212_" class="st9" d="M391.7,335.9h-2.6c-0.3,0-0.5-0.2-0.5-0.5l0,0c0-0.3,0.2-0.5,0.5-0.5h2.6
									c0.3,0,0.5,0.2,0.5,0.5l0,0C392.2,335.7,392,335.9,391.7,335.9z"/>
							</g>
						</g>
						<g id="XMLID_203_">
							<circle id="XMLID_207_" class="st10" cx="404.3" cy="331.9" r="2.3"/>
							<g id="XMLID_204_">
								<path id="XMLID_206_" class="st9" d="M403,335.9h-2.6c-0.3,0-0.5-0.2-0.5-0.5l0,0c0-0.3,0.2-0.5,0.5-0.5h2.6
									c0.3,0,0.5,0.2,0.5,0.5l0,0C403.5,335.7,403.3,335.9,403,335.9z"/>
								<path id="XMLID_205_" class="st9" d="M408.3,335.9h-4c-0.3,0-0.5-0.2-0.5-0.5l0,0c0-0.3,0.2-0.5,0.5-0.5h4
									c0.3,0,0.5,0.2,0.5,0.5l0,0C408.8,335.7,408.6,335.9,408.3,335.9z"/>
							</g>
						</g>
						<g id="XMLID_197_">
							<circle id="XMLID_202_" class="st10" cx="367.5" cy="331.9" r="2.3"/>
							<g id="XMLID_198_">
								<path id="XMLID_201_" class="st9" d="M368.1,335.9h-2.7c-0.3,0-0.5-0.2-0.5-0.5l0,0c0-0.3,0.2-0.5,0.5-0.5h2.7
									c0.3,0,0.5,0.2,0.5,0.5l0,0C368.6,335.7,368.4,335.9,368.1,335.9z"/>
								<path id="XMLID_200_" class="st9" d="M364,335.9h-1.1c-0.3,0-0.5-0.2-0.5-0.5l0,0c0-0.3,0.2-0.5,0.5-0.5h1.1
									c0.3,0,0.5,0.2,0.5,0.5l0,0C364.5,335.7,364.3,335.9,364,335.9z"/>
								<path id="XMLID_199_" class="st9" d="M372,335.9h-2.5c-0.3,0-0.5-0.2-0.5-0.5l0,0c0-0.3,0.2-0.5,0.5-0.5h2.5
									c0.3,0,0.5,0.2,0.5,0.5l0,0C372.5,335.7,372.3,335.9,372,335.9z"/>
							</g>
						</g>
					</g>
					<g id="XMLID_185_">
						<path id="XMLID_193_" class="st11" d="M377.7,349.3v6.6c0,0.3-0.2,0.5-0.5,0.5h-9.5c-0.3,0-0.5-0.2-0.5-0.5v-6.6
							c0-0.3,0.2-0.5,0.5-0.5h9.5C377.5,348.9,377.7,349.1,377.7,349.3z"/>
						<path id="XMLID_190_" class="st11" d="M390.8,349.3v6.6c0,0.3-0.2,0.5-0.5,0.5h-9.5c-0.3,0-0.5-0.2-0.5-0.5v-6.6
							c0-0.3,0.2-0.5,0.5-0.5h9.5C390.6,348.9,390.8,349.1,390.8,349.3z"/>
						<path id="XMLID_186_" class="st11" d="M403.9,349.3v6.6c0,0.3-0.2,0.5-0.5,0.5H394c-0.3,0-0.5-0.2-0.5-0.5v-6.6
							c0-0.3,0.2-0.5,0.5-0.5h9.5C403.7,348.9,403.9,349.1,403.9,349.3z"/>
					</g>
					<g id="XMLID_75_">
						<path id="XMLID_184_" class="st9" d="M367.8,303.5h-2.3c-0.7,0-1.2-0.5-1.2-1.2v-2.1c0-0.7,0.5-1.2,1.2-1.2h2.3
							c0.7,0,1.2,0.5,1.2,1.2v2.1C369,303,368.4,303.5,367.8,303.5z"/>
						<g id="XMLID_177_">
							<path id="XMLID_183_" class="st9" d="M378.2,301.8h-2.9c-0.3,0-0.5-0.2-0.5-0.5l0,0c0-0.3,0.2-0.5,0.5-0.5h2.9
								c0.3,0,0.5,0.2,0.5,0.5l0,0C378.7,301.6,378.5,301.8,378.2,301.8z"/>
							<path id="XMLID_182_" class="st9" d="M400.3,301.8h-7.7c-0.3,0-0.5-0.2-0.5-0.5l0,0c0-0.3,0.2-0.5,0.5-0.5h7.7
								c0.3,0,0.5,0.2,0.5,0.5l0,0C400.8,301.6,400.6,301.8,400.3,301.8z"/>
							<path id="XMLID_181_" class="st9" d="M406.6,301.8h-4.2c-0.2,0-0.4-0.2-0.4-0.4v-0.3c0-0.2,0.2-0.4,0.4-0.4h4.2
								c0.2,0,0.4,0.2,0.4,0.4v0.3C407,301.6,406.8,301.8,406.6,301.8z"/>
							<g id="XMLID_178_">
								<path id="XMLID_180_" class="st9" d="M386.9,301.8h-5.8c-0.3,0-0.5-0.2-0.5-0.5l0,0c0-0.3,0.2-0.5,0.5-0.5h5.8
									c0.3,0,0.5,0.2,0.5,0.5l0,0C387.4,301.6,387.2,301.8,386.9,301.8z"/>
								<path id="XMLID_179_" class="st9" d="M390.1,301.8h-1.7c-0.3,0-0.5-0.2-0.5-0.5l0,0c0-0.3,0.2-0.5,0.5-0.5h1.7
									c0.3,0,0.5,0.2,0.5,0.5l0,0C390.6,301.6,390.4,301.8,390.1,301.8z"/>
							</g>
						</g>
					</g>
					<g id="XMLID_91_">
						<path id="XMLID_173_" class="st10" d="M411,308.9v16.9h-50.7v-16.9c0,0,0-0.1,0-0.1L411,308.9C411,308.8,411,308.9,411,308.9z
							"/>
						<path id="XMLID_170_" class="st12" d="M376.2,308.9v16.9h-16v-16.9c0,0,0-0.1,0-0.1L376.2,308.9
							C376.2,308.8,376.2,308.9,376.2,308.9z"/>
						<g id="XMLID_162_">
							<g id="XMLID_167_">
								<path id="XMLID_168_" class="st3" d="M377.7,318l-0.6-0.6c-0.1-0.1-0.1-0.1,0-0.2l0.6-0.6l0.2,0.2l-0.5,0.5l0.5,0.5
									L377.7,318z"/>
							</g>
							<g id="XMLID_164_">
								<path id="XMLID_166_" class="st3" d="M409,318l0.6-0.6c0.1-0.1,0.1-0.1,0-0.2l-0.6-0.6l-0.2,0.2l0.5,0.5l-0.5,0.5L409,318z"
									/>
							</g>
						</g>
					</g>
				</g>
				<polygon id="XMLID_228_" class="st13" points="396.8,291.2 360.2,327.8 360.2,310.7 379.7,291.2 				"/>
				<polygon id="XMLID_227_" class="st13" points="408,291.2 360.2,339 360.2,331.5 400.6,291.2 				"/>
				<polygon id="XMLID_226_" class="st13" points="411,325.8 411,340.7 383.7,367.9 368.9,367.9 				"/>
			</g>
		</g>
		<g id="XMLID_261_">
		</g>
		<g id="XMLID_263_">
			<path id="XMLID_394_" class="st4" d="M438.3,257.1H402c-1.1,0-2,0.9-2,2v25.4c0,1.1,0.9,2,2,2h8.9v7.9c0,0.7,0.9,1.1,1.4,0.6
				l8.4-8.4h17.6c1.1,0,2-0.9,2-2v-25.4C440.3,258,439.4,257.1,438.3,257.1z"/>
			<g id="XMLID_39_">
				<path id="XMLID_65_" class="st10" d="M397.4,257.1h36.3c1.1,0,2,0.9,2,2v25.4c0,1.1-0.9,2-2,2H416l-8.4,8.4
					c-0.5,0.5-1.4,0.1-1.4-0.6v-7.9h-8.9c-1.1,0-2-0.9-2-2v-25.4C395.4,258,396.3,257.1,397.4,257.1z"/>
				<path id="XMLID_273_" class="st3" d="M405.1,271.2c0,5.6,4.5,10.1,10.1,10.1c5.6,0,10.1-4.5,10.1-10.1c0-2.6-1-4.9-2.5-6.7
					c-0.2-0.3-0.5-0.5-0.7-0.8c-1.8-1.7-4.2-2.7-6.9-2.7c-2.7,0-5.1,1-6.9,2.7c-0.3,0.2-0.5,0.5-0.7,0.8
					C406.1,266.2,405.1,268.6,405.1,271.2z M406.2,271.5h2.2c0.1,1.5,0.4,3,1.1,4.2c-0.4,0.3-0.7,0.6-1.1,0.9
					c-0.1,0.1-0.2,0.1-0.2,0.2C407,275.4,406.2,273.5,406.2,271.5z M421,275.7c0.7-1.3,1-2.7,1.1-4.2h2.2c-0.1,2-0.8,3.9-2,5.3
					c-0.1-0.1-0.1-0.1-0.2-0.2C421.8,276.3,421.4,276,421,275.7z M414.7,270.5h-5.3c0.1-1.3,0.5-2.6,1.1-3.7c0,0,0,0,0,0
					c1.3,0.7,2.7,1.1,4.2,1.1c0,0,0,0,0,0V270.5z M411.1,265.9c0.9-1.3,2.2-2.3,3.6-3v4c0,0,0,0,0,0
					C413.4,266.8,412.2,266.4,411.1,265.9C411.1,265.9,411.1,265.9,411.1,265.9z M419.4,265.9c-1.1,0.6-2.3,0.9-3.6,1v-4
					C417.2,263.5,418.5,264.6,419.4,265.9z M421.1,270.5h-5.3v-2.6c1.5-0.1,2.9-0.5,4.2-1.1C420.6,267.9,421,269.1,421.1,270.5z
					 M420.1,275.2c-0.1,0-0.1-0.1-0.2-0.1c-1.3-0.7-2.7-1.1-4.2-1.1v-2.4h5.3C421,272.8,420.7,274.1,420.1,275.2z M419.6,276.1
					c-0.9,1.4-2.3,2.6-3.9,3.3V275c1.3,0.1,2.5,0.4,3.6,1C419.5,276,419.5,276,419.6,276.1z M410.9,276.1c0.1,0,0.2-0.1,0.2-0.1
					c1.1-0.6,2.3-0.9,3.6-1c0,0,0,0,0,0v4.4C413.2,278.7,411.8,277.5,410.9,276.1z M410.4,275.2c-0.6-1.1-0.9-2.4-0.9-3.7h5.3v2.4
					c0,0,0,0,0,0c-1.5,0.1-2.9,0.5-4.2,1.1C410.5,275.1,410.4,275.1,410.4,275.2z M408.4,265.2c0.4,0.4,0.8,0.7,1.3,1c0,0,0,0,0,0
					c-0.7,1.3-1.2,2.7-1.3,4.2h-2.2v0C406.3,268.5,407.1,266.6,408.4,265.2z M413.8,262.2C413.8,262.2,413.8,262.2,413.8,262.2
					c-1.4,0.8-2.7,1.8-3.6,3.2c0,0,0,0,0,0c-0.4-0.3-0.8-0.6-1.1-0.9C410.4,263.3,412,262.5,413.8,262.2z M421.4,264.5
					c-0.3,0.3-0.7,0.6-1.1,0.9c0,0,0,0,0,0c-0.9-1.3-2.2-2.4-3.6-3.2c0,0,0,0,0,0C418.5,262.5,420.1,263.3,421.4,264.5z
					 M424.3,270.5L424.3,270.5l-2.2,0c-0.1-1.5-0.6-3-1.3-4.2c0,0,0,0,0,0c0.5-0.3,0.9-0.6,1.3-1
					C423.4,266.6,424.2,268.5,424.3,270.5z M416.7,280.1C416.7,280.1,416.7,280.1,416.7,280.1c1.5-0.8,2.9-2,3.8-3.5
					c0.3,0.2,0.6,0.5,0.9,0.7c0.1,0.1,0.2,0.2,0.3,0.2C420.3,278.9,418.6,279.8,416.7,280.1z M413.8,280.1c-1.9-0.3-3.6-1.2-4.9-2.5
					c0.1-0.1,0.2-0.2,0.3-0.2c0.3-0.3,0.6-0.5,0.9-0.7C410.9,278.1,412.3,279.3,413.8,280.1C413.8,280.1,413.8,280.1,413.8,280.1z"
					/>
			</g>
		</g>
	</g>
</g>
<g id="DESIGNED_BY_FREEPIK">
</g>
</svg>
